<svg width="24" height="24" viewBox="0 0 24 24" fill="none" xmlns="http://www.w3.org/2000/svg">
<path d="M21.4167 7.64033C21.3708 6.59977 21.2025 5.8844 20.9614 5.26451C20.7127 4.60652 20.3301 4.01743 19.8287 3.52771C19.3389 3.03037 18.7458 2.64391 18.0953 2.39913C17.4718 2.15808 16.76 1.98981 15.7192 1.94393C14.6707 1.89417 14.3378 1.88266 11.6785 1.88266C9.0191 1.88266 8.68623 1.89417 7.64158 1.94005C6.60082 1.98592 5.88531 2.15434 5.26546 2.39524C4.6072 2.64391 4.01799 3.02648 3.52818 3.52771C3.03074 4.01743 2.64436 4.61041 2.39938 5.26078C2.15829 5.8844 1.98998 6.59589 1.9441 7.63645C1.89432 8.68478 1.88281 9.01758 1.88281 11.6764C1.88281 14.3353 1.89432 14.6681 1.94021 15.7125C1.9861 16.7531 2.15455 17.4685 2.39564 18.0884C2.64436 18.7464 3.03074 19.3355 3.52818 19.8252C4.01799 20.3225 4.61108 20.709 5.26158 20.9538C5.88531 21.1948 6.59694 21.3631 7.63785 21.4089C8.68234 21.455 9.01536 21.4663 11.6747 21.4663C14.3341 21.4663 14.667 21.455 15.7116 21.4089C16.7524 21.3631 17.4679 21.1948 18.0877 20.9538C19.4041 20.4449 20.4449 19.4043 20.9538 18.0884C21.1947 17.4647 21.3632 16.7531 21.4091 15.7125C21.455 14.6681 21.4665 14.3353 21.4665 11.6764C21.4665 9.01758 21.4626 8.68478 21.4167 7.64033ZM19.6528 15.636C19.6107 16.5925 19.45 17.1089 19.3161 17.4532C18.9869 18.3064 18.3097 18.9835 17.4564 19.3126C17.112 19.4465 16.5917 19.6071 15.6388 19.6491C14.6057 19.6952 14.2958 19.7065 11.6823 19.7065C9.06887 19.7065 8.75513 19.6952 7.72573 19.6491C6.76913 19.6071 6.25256 19.4465 5.90818 19.3126C5.48354 19.1557 5.09701 18.907 4.78327 18.5818C4.45803 18.2643 4.20931 17.8817 4.05237 17.4571C3.91844 17.1128 3.75776 16.5925 3.71576 15.6399C3.66972 14.607 3.65836 14.297 3.65836 11.6841C3.65836 9.07108 3.66972 8.7574 3.71576 7.72835C3.75776 6.77193 3.91844 6.25546 4.05237 5.91115C4.20931 5.48643 4.45803 5.10013 4.78716 4.7863C5.10463 4.46112 5.48728 4.21245 5.91207 4.05568C6.25645 3.92179 6.7769 3.76114 7.72962 3.71899C8.76275 3.67312 9.07276 3.66161 11.6861 3.66161C14.3034 3.66161 14.6133 3.67312 15.6427 3.71899C16.5993 3.76114 17.1159 3.92179 17.4602 4.05568C17.8849 4.21245 18.2714 4.46112 18.5852 4.7863C18.9104 5.10387 19.1591 5.48643 19.3161 5.91115C19.45 6.25546 19.6107 6.77566 19.6528 7.72835C19.6987 8.76129 19.7102 9.07108 19.7102 11.6841C19.7102 14.297 19.6987 14.6031 19.6528 15.636Z" fill="white"/>
<path d="M11.6746 6.73523C8.94777 6.73523 6.73535 8.9475 6.73535 11.6745C6.73535 14.4014 8.94777 16.6137 11.6746 16.6137C14.4016 16.6137 16.6138 14.4014 16.6138 11.6745C16.6138 8.9475 14.4016 6.73523 11.6746 6.73523ZM11.6746 14.8784C9.90557 14.8784 8.47063 13.4436 8.47063 11.6745C8.47063 9.9053 9.90557 8.47051 11.6746 8.47051C13.4438 8.47051 14.8786 9.9053 14.8786 11.6745C14.8786 13.4436 13.4438 14.8784 11.6746 14.8784Z" fill="white"/>
<path d="M18.0001 6.47531C18.0001 7.0974 17.4957 7.6018 16.8735 7.6018C16.2514 7.6018 15.7471 7.0974 15.7471 6.47531C15.7471 5.85308 16.2514 5.34882 16.8735 5.34882C17.4957 5.34882 18.0001 5.85308 18.0001 6.47531Z" fill="white"/>
</svg>
