<svg width="21" height="21" viewBox="0 0 21 21" fill="none" xmlns="http://www.w3.org/2000/svg">
<path fill-rule="evenodd" clip-rule="evenodd" d="M10.756 20.4654L10.7619 20.4664C19.5843 20.4664 23.9139 9.85071 17.747 3.76341C11.5652 -2.38823 0.882812 1.96394 0.882812 10.6673C0.882812 12.5172 1.40575 14.3137 2.38998 15.8737L2.62759 16.2448L1.62844 19.8527L5.35661 18.8876C5.38023 18.8979 5.42959 18.9279 5.50354 18.973C6.0519 19.3072 7.9525 20.4654 10.7401 20.4654H10.756ZM16.0408 13.0392L16.0496 12.9661C16.0813 12.9802 16.1117 12.9936 16.141 13.0065C16.385 13.114 16.5459 13.1848 16.6109 13.3022C16.6848 13.4338 16.6848 14.0038 16.4337 14.6907C16.1885 15.3776 15.0137 15.9915 14.4485 16.0802C13.9414 16.1523 13.3004 16.1834 12.5973 15.9623C9.99377 15.0775 8.5699 14.4403 5.89744 10.9794C4.53758 9.08324 4.13681 7.30015 5.72611 5.57162C6.09143 5.19552 6.50598 5.18772 7.07317 5.23644C7.09106 5.23644 7.10954 5.23574 7.12855 5.23503C7.30305 5.22846 7.52177 5.22023 7.73488 5.73337C7.84282 5.98372 8.01645 6.39967 8.18364 6.80019C8.39775 7.31313 8.6013 7.80075 8.64277 7.88282C8.71564 8.028 8.76586 8.18877 8.66739 8.39339C8.43577 8.82712 8.19452 9.09049 8.01454 9.28698C7.76756 9.55661 7.63593 9.7003 7.80283 9.9855C7.97613 10.2778 8.56301 11.2278 9.43742 12.0024C10.3769 12.8343 11.1944 13.1849 11.6091 13.3628C11.69 13.3974 11.7555 13.4255 11.8036 13.4494C12.0961 13.5809 12.2674 13.5663 12.4398 13.3763C12.775 12.9963 12.9991 12.7107 13.1628 12.502C13.5649 11.9893 13.603 11.9407 14.032 12.0979C14.3008 12.1944 15.7444 12.893 16.0408 13.0392Z" fill="white"/>
</svg>
